<svg id="Layer_1" data-name="Layer 1" xmlns="http://www.w3.org/2000/svg" xmlns:xlink="http://www.w3.org/1999/xlink" viewBox="0 0 512 512"><defs><linearGradient id="linear-gradient" x1="256" y1="512.01" x2="256" y2="-0.01" gradientUnits="userSpaceOnUse"><stop offset="0" stop-color="#231f20"/><stop offset="1" stop-color="#58595b"/></linearGradient></defs><title>email</title><path d="M313.79,144.56,320.4,115h70L350.09,305.93q-3.73,18.1-3.72,24c0,4.09,1,7.27,3.05,9.6a9.43,9.43,0,0,0,7.28,3.46q14.32,0,37-18.77T433.17,273Q450,240.66,450,202.35a151.79,151.79,0,0,0-12.07-60.18,140,140,0,0,0-34.86-49q-22.81-20.77-56.31-32.47T270.83,49Q227.65,49,191.6,60.3T128.27,92.77a182.15,182.15,0,0,0-45.58,52.32A227.56,227.56,0,0,0,58,205.28a270.11,270.11,0,0,0-8.47,67.35q0,45.83,18.15,83.75A169.55,169.55,0,0,0,120.44,420Q155,445.69,204.05,456.5t110.77,4.39q49-5.87,83.08-22.37a163.76,163.76,0,0,0,57.65-46.34H512a189,189,0,0,1-35.91,50.87,203.86,203.86,0,0,1-51.81,37.66Q394.62,496,357.76,504t-80.28,8q-65.22,0-117.41-17.18T72.21,445.31a210.27,210.27,0,0,1-53.94-77.23Q0,323.24,0,268.9q0-56.7,18.82-106T73,77.34Q108.39,41,159.41,20.49T271.91,0q50.32,0,92.34,14.78t72,42.48a185.06,185.06,0,0,1,45.7,65.62q15.77,37.94,15.79,83.74A201.78,201.78,0,0,1,448.53,338a177.49,177.49,0,0,1-55.78,43.14A154.08,154.08,0,0,1,323.58,397q-21.46,0-33.39-7.34t-15.89-23.28q-23.07,22.91-53,28.89a98.26,98.26,0,0,1-58-5.61q-28.1-11.56-45.46-39T100.44,283q0-41.81,17.91-82.29t50.85-66.29q33-25.85,74.61-25.84Q291.52,108.61,313.79,144.56Zm-145,137.92q0,31.94,13.23,49t34.73,17q24.87,0,43.87-20t28.73-50.45q9.79-30.48,9.81-59a89.19,89.19,0,0,0-3.33-25.42,60,60,0,0,0-9.79-19.84,43,43,0,0,0-15.63-12.93,47.49,47.49,0,0,0-20.8-4.37q-23.31,0-42,18.24t-28.75,47.38A183.3,183.3,0,0,0,168.83,282.48Z" fill="url(#linear-gradient)"/></svg>